<svg preserveAspectRatio="xMidYMid meet" width="100%" height="100%" overflow="visible" style="display: block;" viewBox="0 0 82.0356 24" fill="none" xmlns="http://www.w3.org/2000/svg">
<g id="Logo Container">
<g id="Logo">
<path id="Screenshot 2024-03-28 at 5.17 1 (Traced)" fill-rule="evenodd" clip-rule="evenodd" d="M78.0416 5.33457C77.6648 5.50268 77.2296 5.9588 77.0875 6.33451C76.8156 7.05349 77.0961 8.10434 77.6686 8.51167C78.3045 8.96395 79.4977 8.96395 80.1336 8.51167C81.1317 7.80157 81.0048 5.99921 79.9163 5.42408C79.4094 5.15627 78.5352 5.11454 78.0416 5.33457ZM33.6525 6.36411C31.3948 6.69536 29.9623 7.47506 29.189 8.79322C28.0226 10.782 27.9723 14.7267 29.086 16.8787C29.372 17.431 30.2398 18.2829 30.8412 18.6015C31.7447 19.0801 32.7086 19.3214 34.1075 19.4195C37.0278 19.6241 38.7887 19.0144 40.0402 17.3655C40.524 16.7278 41.0844 15.7035 41.0844 15.4565C41.0844 15.3038 40.9423 15.2428 39.0845 14.5978L37.9441 14.2019L37.7537 14.5711C37.2562 15.5353 36.4309 16.012 35.1368 16.0824C32.9269 16.2025 31.9093 15.3443 31.8055 13.2729C31.7179 11.5282 32.1071 10.5798 33.1255 10.0562C34.0747 9.56817 35.8902 9.60101 36.7365 10.1217C37.1179 10.3563 37.7436 11.1095 37.884 11.5031C37.9055 11.5629 38.6039 11.3758 39.5439 11.0582L41.1669 10.5099L41.0684 10.25C40.7119 9.30834 40.2762 8.61916 39.622 7.9618C38.4628 6.79709 37.4158 6.41027 35.2703 6.354C34.5474 6.33511 33.8194 6.33956 33.6525 6.36411ZM46.494 9.79396C46.3828 9.81952 46.0415 9.89094 45.7357 9.95267C43.4541 10.4129 42.0664 12.4208 42.2245 15.0326C42.3628 17.3186 43.591 18.8272 45.7263 19.3338C46.4354 19.502 47.9604 19.5055 48.668 19.3404C50.9999 18.7964 52.4311 16.8124 52.2795 14.3341C52.1396 12.0484 50.9671 10.5265 48.9208 9.97439C48.3873 9.83043 46.8367 9.71516 46.494 9.79396ZM66.8745 9.89468C65.092 10.2808 63.7396 11.5732 63.2823 13.3274C62.8276 15.0713 63.3726 17.0911 64.6004 18.2123C65.5151 19.0474 66.5921 19.4524 67.9302 19.4644C68.834 19.4723 69.5172 19.2405 70.0393 18.7484L70.3285 18.476L70.286 19.4358C70.257 20.0867 70.1863 20.5037 70.0659 20.7318C69.7619 21.308 69.5049 21.3552 66.6695 21.3552H64.1384V22.6776V24L67.096 23.9585C69.7862 23.9207 70.1135 23.8973 70.7151 23.6993C72.0251 23.2681 72.7543 22.5704 73.1644 21.3557C73.38 20.7172 73.3871 20.5456 73.4185 15.319L73.4507 9.93954H72.2452H71.0395L70.9763 10.2552C70.9415 10.4289 70.9131 10.6842 70.9131 10.8226C70.9131 11.0724 70.9101 11.0716 70.5132 10.7134C69.5461 9.84043 68.3582 9.57322 66.8745 9.89468ZM53.8248 11.2528V12.5662H54.482H55.1393V14.6876V16.8091H54.482H53.8248V18.0719V19.3347H56.8077H59.7905V18.0719V16.8091H59.0708H58.3511L58.3919 15.5211C58.4277 14.3943 58.463 14.1795 58.6745 13.8051C59.1489 12.9651 60.0669 12.5662 61.5255 12.5662H62.4195V11.2528V9.93954L61.5853 9.94035C60.0077 9.94176 58.9372 10.2265 58.1534 10.8534C57.948 11.0176 57.7547 11.1518 57.7236 11.1518C57.6925 11.1518 57.6671 10.8791 57.6671 10.5457V9.93954H55.746H53.8248V11.2528ZM76.0699 11.2528V12.5662H76.7271H77.3844V14.6876V16.8091H76.7271H76.0699V18.0719V19.3347H79.0528H82.0356V18.0719V16.8091H81.3278H80.62V13.3743V9.93954H78.345H76.0699V11.2528ZM69.371 12.8671C69.9525 13.1936 70.2403 13.6852 70.288 14.4332C70.384 15.9407 69.2125 16.9508 67.7691 16.6049C66.3123 16.2556 65.7635 14.3328 66.8001 13.2091C67.4088 12.5492 68.5374 12.3991 69.371 12.8671ZM48.3138 12.8992C49.1739 13.3859 49.4865 14.7502 48.9587 15.7139C48.4005 16.7333 46.6679 16.9296 45.7591 16.0766C45.258 15.6062 45.1125 14.289 45.4831 13.5777C45.8178 12.9353 46.3143 12.682 47.2524 12.6753C47.7549 12.6716 48.0048 12.7244 48.3138 12.8992Z" fill="var(--fill-0, #FF5C00)"/>
</g>
<path id="Subtract" fill-rule="evenodd" clip-rule="evenodd" d="M4.89093 0.316073C4.44481 0.725541 3.90877 1.80084 3.74779 2.60932C3.6834 2.93285 3.63067 3.50283 3.63067 3.87589C3.63067 4.46868 3.61035 4.57248 3.46923 4.69956C3.38039 4.77954 3.24203 4.97317 3.16162 5.12994C3.07501 5.29899 2.94577 5.42889 2.84405 5.44919C1.74062 5.66961 0.709322 5.90911 0.513012 5.99062C0.130281 6.14945 -0.0122184 6.43505 0.000812737 7.017C0.014687 7.63926 0.245414 8.26792 0.644243 8.77028C0.867458 9.05145 1.09221 9.21997 1.53496 9.43794L2.12266 9.65325L3.61503 9.7546C4.83371 9.77506 5.08676 9.43315 5.24241 9.22283C5.41722 8.98663 5.57764 8.60911 5.44322 8.35859C5.3933 8.31359 5.32479 8.3538 5.20363 8.42491C4.97426 8.55953 4.55622 8.80489 3.71851 8.79241C2.93243 8.78065 2.21426 8.75493 2.12266 8.73517C1.90428 8.68808 1.48437 8.33364 1.48437 8.19633C1.48437 8.13711 1.54569 8.08864 1.62058 8.08864C1.81973 8.08864 2.08127 7.88356 2.21802 7.62025C2.39118 7.2868 2.22814 7.06654 1.71793 6.94465C1.00927 6.77537 1.0863 6.73805 2.8258 6.40788C4.26145 6.13533 4.35865 6.08931 4.73509 5.50476C5.12787 4.89479 5.52884 4.59721 6.04832 4.53043L6.42852 4.48151L6.14813 4.70139C5.2893 5.37493 5.06447 6.48534 5.67556 7.03601C5.79705 7.14545 5.89302 7.1556 6.28419 7.10058C7.17958 6.97457 8.02238 7.27864 8.67126 7.96172C9.32204 8.64694 9.57515 9.30773 9.54388 10.2404C9.51069 11.229 9.09914 11.8526 7.76352 12.9374C6.61364 13.8714 6.16737 14.3856 5.76064 15.2447C5.3336 16.1468 5.35468 16.713 5.8153 16.713C6.02732 16.713 6.0786 16.6527 6.57187 15.8234C7.04298 15.0314 7.29141 14.8135 7.57611 14.9428C7.84884 15.0665 7.82592 15.3413 7.50819 15.7557C6.68646 16.8275 6.63411 18.611 7.38056 20.0966C7.72083 20.7738 7.86494 20.8526 8.76217 20.8526C9.24907 20.8526 9.57584 20.8049 9.98264 20.6745L10.5381 20.4963L10.8335 19.8831C11.2251 19.0699 11.3142 18.7133 11.3256 17.9121C11.3358 17.2001 11.3868 17.0982 11.7341 17.0958C12.0067 17.094 12.0925 17.362 12.0879 18.2013C12.0839 18.9297 11.9728 19.4216 11.642 20.1754C11.5839 20.3077 11.6087 20.3139 11.9935 20.265C12.6486 20.1816 13.5841 19.9493 14.6328 19.6095C15.1657 19.4369 15.6105 19.307 15.6211 19.3209C15.6317 19.3348 15.7453 19.5007 15.8734 19.6896C16.4967 20.6084 17.3762 21.1443 18.3531 21.2006C18.9316 21.2339 19.7077 21.0834 19.9406 20.8927C20.1957 20.6838 20.0652 20.9717 19.4988 21.8681C19.1591 22.4058 18.8432 22.8912 18.7969 22.9467C18.703 23.0593 17.1217 23.0967 17.1217 22.9863C17.1217 22.8857 17.4948 22.4129 17.7072 22.2443C17.9329 22.0651 17.8806 21.9868 17.4351 21.8374C16.8955 21.6563 16.1988 21.1995 15.725 20.716C15.2543 20.2357 15.2265 20.2197 15.0095 20.3019C14.2831 20.5771 12.4829 20.9825 10.7978 21.2503C9.63311 21.4354 9.42338 21.5954 8.7509 22.8116L8.62028 23.0478L8.61789 23.0481C8.10208 23.1202 7.50666 23.2035 6.51655 23.0362C6.51655 22.8899 6.89941 22.3798 7.07264 22.3251C7.19644 22.2859 7.20388 22.2371 7.13964 21.8821C7.03899 21.3261 6.81064 20.6752 6.50242 20.0658C6.2894 19.6446 6.1213 19.4483 5.60618 19.0191C4.81182 18.3575 4.40901 17.9225 3.98205 17.2654C3.28343 16.19 2.98026 15.1032 2.98708 13.6983C2.99191 12.7016 3.08972 12.2216 3.49836 11.1897C3.71782 10.6354 3.72748 10.5737 3.62354 10.3893C3.46632 10.1103 3.15825 10.0136 2.92062 10.1686C2.67541 10.3286 2.21572 11.2677 2.01266 12.0237C1.78983 12.8531 1.76906 14.4878 1.96943 15.4156C2.25359 16.7308 3.00249 18.0667 4.02827 19.088C4.65208 19.7092 4.8155 20.0871 4.93968 21.1964C5.03473 22.0448 5.00399 22.1752 4.69439 22.2369C4.34012 22.3073 4.0844 23.0367 3.92 23.5056C3.87529 23.6331 3.97083 23.7712 4.10597 23.7707C4.26301 23.7701 4.34488 23.769 4.43362 23.7677C4.74912 23.7634 5.15167 23.7579 9.32854 23.7706C9.43608 23.7709 9.5397 23.7161 9.59235 23.6223C9.66528 23.4924 9.72756 23.365 9.78718 23.2432C10.0335 22.7396 10.2343 22.329 10.9521 22.2155C12.0386 22.0437 13.0784 21.8269 13.9023 21.6006C14.3449 21.479 14.7166 21.377 14.7282 21.3741C15.1687 21.8431 14.4192 22.2442 14.1043 22.4127C14.0781 22.4267 14.0549 22.4391 14.0357 22.4498C13.8361 22.5608 13.7459 23.2822 13.7046 23.6118C13.6947 23.6909 13.763 23.7712 13.8427 23.7706C13.9471 23.7698 14.0183 23.7684 14.0791 23.7673C14.2112 23.7647 14.2944 23.763 14.5632 23.7711C15.4262 23.7965 16.9549 23.7861 18.1835 23.7778C18.3904 23.7763 18.5889 23.775 18.7741 23.7739C19.2335 23.7711 19.6748 23.5719 19.9479 23.2025C20.1198 22.9699 20.2816 22.7314 20.4416 22.4754C21.909 20.1255 23.6141 16.4597 21.1171 14.1378C20.0763 13.17 18.6983 13.0133 16.3502 12.7502C14.4299 12.5351 13.6967 12.2501 12.8212 11.3784C12.0812 10.6416 11.7937 10.0103 11.2992 8.03583C11.0349 6.98098 11.0303 6.94427 11.1619 6.94267C11.3439 6.94045 12.2836 6.18738 12.5972 5.79226C13.4782 4.68254 13.9353 3.24791 13.7584 2.1475C13.6631 1.55394 13.4324 1.35024 12.8119 1.31185C11.7684 1.2472 10.1766 2.06622 8.78861 3.38186L8.31244 3.83315L7.83044 3.70997C7.5653 3.64219 7.24511 3.57793 7.11887 3.56717L6.88937 3.54748L6.86614 2.97506C6.83571 2.22649 6.66577 1.53913 6.34374 0.862387C5.89601 -0.0783597 5.48798 -0.231844 4.89093 0.316073ZM16.0963 22.5892C15.8923 22.9789 15.8258 23.0466 15.6461 23.0472C15.5302 23.0475 15.4353 23.0275 15.4353 23.0027C15.4353 22.9052 16.1497 22.1319 16.2397 22.1319C16.3006 22.1319 16.2481 22.2992 16.0963 22.5892ZM5.28647 23.0472C5.46615 23.0466 5.67603 22.7148 5.88008 22.3251C6.03185 22.0351 5.94094 21.8509 5.88008 21.8509C5.79001 21.8509 5.07567 22.9052 5.07567 23.0027C5.07567 23.0275 5.17057 23.0475 5.28647 23.0472Z" fill="var(--fill-0, #FF5C00)"/>
</g>
</svg>
