<svg width="470" height="478" viewBox="0 0 470 478" fill="none" xmlns="http://www.w3.org/2000/svg">
<path d="M256.161 471.607C251.561 468.107 235.561 455.607 220.461 443.807L192.961 422.307L189.461 412.007C187.561 406.407 182.561 392.107 178.261 380.307L170.561 358.807H122.761H74.8609L50.7609 342.607C37.4609 333.707 25.5609 325.007 24.3609 323.307C23.1609 321.707 16.8609 311.107 10.5609 299.807C-0.339061 280.607 -0.939055 279.207 0.660945 277.707C1.56095 276.707 23.9609 262.007 50.3609 244.807C76.7609 227.607 99.0609 212.807 99.9609 211.907C101.261 210.607 107.461 185.907 110.461 170.007C110.961 167.407 116.661 160.907 135.461 141.007L159.761 115.307L159.961 67.3072C160.261 12.2072 160.161 15.2072 160.961 14.4072C161.361 13.9072 199.461 53.5072 229.061 85.3072C231.561 88.0071 233.861 90.1072 234.161 89.8072C234.361 89.5071 239.861 73.1072 246.261 53.3072C260.861 8.70716 263.961 -0.292849 264.861 0.00715132C265.261 0.207151 270.461 6.60715 276.361 14.3072C355.461 116.907 352.661 113.007 418.361 213.307C466.661 287.007 471.061 294.007 469.661 295.407C468.961 296.007 455.761 307.707 440.361 321.407C424.961 335.007 405.161 352.807 396.261 360.807C387.461 368.807 374.161 380.707 366.761 387.307C359.361 394.007 344.561 407.307 333.861 416.907C296.961 450.107 265.661 477.807 264.961 477.807C264.661 477.807 260.661 475.007 256.161 471.607ZM273.661 425.807C286.161 393.407 312.061 325.507 321.361 301.007C325.561 289.907 328.861 280.407 328.661 280.007C328.461 279.607 318.761 267.307 307.061 252.607L285.661 226.007L278.061 224.907C273.761 224.307 259.261 222.207 245.761 220.107L221.061 216.407L216.761 210.707C200.361 189.107 177.461 159.207 176.761 158.507C175.961 157.507 134.461 177.907 129.961 181.507C129.661 181.707 127.261 191.507 124.461 203.307L119.361 224.707L107.861 232.107C101.561 236.207 86.0609 246.307 73.3609 254.607L50.3609 269.707L55.2609 271.907L60.0609 274.007L59.6609 278.307C59.2609 281.207 56.5609 287.207 51.0609 296.907C44.7609 308.007 43.2609 311.607 44.1609 312.407C44.8609 313.007 53.3609 319.007 63.1609 325.707L81.0609 337.807H134.561H187.961L203.161 345.907C211.561 350.407 218.761 354.407 219.261 354.807C220.161 355.707 225.361 366.607 250.161 419.507C257.961 436.107 264.361 449.607 264.461 449.507C264.561 449.407 268.661 438.707 273.661 425.807ZM286.761 83.6072C278.461 64.2072 271.361 48.0072 270.961 47.6072C270.361 46.9072 249.861 109.807 249.861 112.307C249.861 112.907 254.261 117.007 259.661 121.507C264.961 125.907 276.561 135.707 285.361 143.107L301.361 156.707L301.661 137.807L301.861 118.907L286.761 83.6072Z" fill="#092B58"/>
<path d="M262.961 456.707C262.461 455.407 254.761 438.807 245.861 419.807C236.961 400.807 226.961 379.507 223.561 372.307C220.261 365.207 217.061 358.807 216.461 358.207C215.861 357.507 208.561 353.407 200.161 348.907L184.961 340.807H131.561H78.061L58.261 327.307C47.261 319.807 38.261 313.307 38.061 312.907C37.861 312.407 41.561 305.207 46.361 296.907C58.361 275.707 58.061 277.507 50.261 273.907C46.761 272.307 43.861 270.507 43.861 270.007C43.861 269.207 108.561 226.107 114.361 223.107C115.961 222.207 117.261 218.007 121.261 201.007C123.961 189.407 126.461 179.507 126.761 179.107C127.061 178.607 129.361 177.007 131.861 175.607C137.161 172.607 176.461 152.807 177.261 152.807C177.661 152.807 194.561 174.707 219.761 207.707L224.061 213.407L248.761 217.107C262.261 219.207 276.761 221.307 281.061 221.907L288.661 223.007L311.061 251.007C323.261 266.307 333.261 279.607 333.061 280.407C332.761 281.907 327.961 294.707 303.661 358.307C274.061 435.907 265.761 457.307 264.861 458.207C264.261 458.807 263.561 458.107 262.961 456.707ZM179.461 221.107C185.461 216.407 190.561 212.307 190.761 212.107C190.961 212.007 190.961 211.607 190.661 211.307C189.561 210.207 157.861 199.807 155.561 199.807C154.261 199.807 151.961 201.007 150.561 202.407C148.161 204.707 133.861 226.907 133.861 228.107C133.861 228.807 142.061 229.407 156.961 229.607L168.661 229.807L179.461 221.107Z" fill="#FFFEFE"/>
<path d="M278.761 143.207C265.361 131.807 252.261 120.707 249.561 118.407L244.761 114.307L256.861 76.8071C263.461 56.2071 268.861 38.7071 268.861 38.0071C268.861 33.3071 273.161 41.8071 288.061 76.4071L304.761 115.307L304.861 139.607C304.861 152.907 304.461 163.807 304.061 163.807C303.661 163.807 292.261 154.507 278.761 143.207Z" fill="#FFFEFE"/>
<path d="M136.735 231.896L130.935 231.496V227.896C130.935 225.296 132.735 221.596 138.035 213.096C141.935 206.796 146.235 200.596 147.635 199.196C151.835 194.996 158.035 195.596 177.235 202.096C186.135 205.096 193.535 207.596 193.635 207.596C193.835 207.596 193.935 209.296 193.935 211.396C193.835 214.896 193.335 215.496 182.735 223.896L171.635 232.596L157.035 232.396C149.035 232.296 139.835 232.096 136.735 231.896Z" fill="#092B58"/>
</svg>
