<svg width="23" height="24" viewBox="0 0 23 24" fill="none" xmlns="http://www.w3.org/2000/svg">
<path fill-rule="evenodd" clip-rule="evenodd" d="M4.89093 0.316073C4.44481 0.725541 3.90877 1.80084 3.74779 2.60932C3.6834 2.93285 3.63067 3.50283 3.63067 3.87589C3.63067 4.46868 3.61035 4.57248 3.46923 4.69956C3.38039 4.77954 3.24203 4.97317 3.16162 5.12994C3.07501 5.29899 2.94577 5.42889 2.84405 5.44919C1.74062 5.66961 0.709322 5.90911 0.513012 5.99062C0.130281 6.14945 -0.0122184 6.43505 0.000812738 7.017C0.014687 7.63926 0.245414 8.26792 0.644243 8.77028C0.867458 9.05145 1.09221 9.21996 1.53496 9.43794L2.12266 9.65325L3.61503 9.7546C4.83371 9.77506 5.08676 9.43315 5.24241 9.22283C5.41722 8.98663 5.57764 8.60911 5.44322 8.35859C5.3933 8.31359 5.32479 8.3538 5.20363 8.42491C4.97426 8.55954 4.55622 8.80489 3.71851 8.79241C2.93243 8.78065 2.21426 8.75493 2.12266 8.73517C1.90428 8.68808 1.48437 8.33364 1.48437 8.19633C1.48437 8.13711 1.54569 8.08864 1.62058 8.08864C1.81973 8.08864 2.08127 7.88356 2.21802 7.62025C2.39118 7.2868 2.22814 7.06654 1.71793 6.94465C1.00927 6.77537 1.0863 6.73805 2.8258 6.40788C4.26145 6.13533 4.35865 6.08931 4.73509 5.50476C5.12786 4.89479 5.52884 4.59721 6.04832 4.53043L6.42852 4.48151L6.14813 4.70139C5.2893 5.37493 5.06447 6.48534 5.67556 7.03601C5.79705 7.14545 5.89302 7.1556 6.28419 7.10058C7.17958 6.97457 8.02238 7.27864 8.67126 7.96172C9.32204 8.64694 9.57515 9.30773 9.54388 10.2404C9.51069 11.229 9.09914 11.8526 7.76352 12.9374C6.61364 13.8714 6.16737 14.3856 5.76064 15.2447C5.3336 16.1468 5.35468 16.713 5.8153 16.713C6.02732 16.713 6.0786 16.6527 6.57187 15.8234C7.04298 15.0314 7.29141 14.8135 7.57611 14.9427C7.84884 15.0665 7.82592 15.3413 7.50819 15.7557C6.68646 16.8275 6.63411 18.611 7.38056 20.0966C7.72083 20.7738 7.86494 20.8526 8.76217 20.8526C9.24907 20.8526 9.57584 20.8049 9.98265 20.6745L10.5381 20.4963L10.8335 19.8831C11.2251 19.0699 11.3142 18.7133 11.3256 17.9121C11.3358 17.2001 11.3868 17.0982 11.7341 17.0958C12.0067 17.094 12.0925 17.362 12.0879 18.2013C12.0839 18.9297 11.9728 19.4216 11.642 20.1754C11.5839 20.3077 11.6087 20.3139 11.9935 20.265C12.6486 20.1816 13.5841 19.9493 14.6328 19.6095C15.1657 19.4369 15.6105 19.307 15.6211 19.3209C15.6317 19.3348 15.7453 19.5007 15.8734 19.6896C16.4967 20.6084 17.3762 21.1443 18.3531 21.2006C18.9316 21.2339 19.7077 21.0834 19.9406 20.8927C20.1957 20.6838 20.0652 20.9717 19.4988 21.8681C19.1591 22.4058 18.8432 22.8912 18.7969 22.9467C18.703 23.0593 17.1217 23.0967 17.1217 22.9863C17.1217 22.8857 17.4948 22.4129 17.7072 22.2443C17.9329 22.0651 17.8806 21.9868 17.4351 21.8374C16.8955 21.6563 16.1988 21.1995 15.725 20.716C15.2543 20.2357 15.2265 20.2197 15.0095 20.3019C14.2831 20.5771 12.4829 20.9825 10.7978 21.2503C9.63311 21.4354 9.42338 21.5954 8.7509 22.8116L8.62028 23.0478L8.61789 23.0481C8.10208 23.1202 7.50666 23.2035 6.51655 23.0362C6.51655 22.8899 6.89941 22.3798 7.07264 22.3251C7.19644 22.2859 7.20388 22.2371 7.13964 21.8821C7.03899 21.3261 6.81064 20.6752 6.50242 20.0658C6.2894 19.6446 6.1213 19.4483 5.60618 19.0191C4.81182 18.3575 4.40901 17.9225 3.98205 17.2654C3.28343 16.19 2.98026 15.1032 2.98708 13.6983C2.99191 12.7016 3.08972 12.2216 3.49836 11.1897C3.71782 10.6354 3.72748 10.5737 3.62354 10.3893C3.46632 10.1103 3.15825 10.0136 2.92062 10.1686C2.67541 10.3286 2.21572 11.2677 2.01266 12.0237C1.78983 12.8531 1.76906 14.4878 1.96943 15.4156C2.25359 16.7308 3.00249 18.0667 4.02827 19.088C4.65208 19.7092 4.8155 20.0871 4.93968 21.1964C5.03473 22.0448 5.00399 22.1752 4.69439 22.2369C4.34012 22.3073 4.0844 23.0367 3.92 23.5056C3.87529 23.6331 3.97083 23.7712 4.10597 23.7707C4.26301 23.7701 4.34488 23.769 4.43362 23.7677C4.74912 23.7634 5.15167 23.7579 9.32854 23.7706C9.43608 23.7709 9.5397 23.7161 9.59235 23.6223C9.66528 23.4924 9.72756 23.365 9.78718 23.2432C10.0335 22.7396 10.2343 22.329 10.9521 22.2155C12.0386 22.0437 13.0784 21.8269 13.9023 21.6006C14.3449 21.479 14.7166 21.377 14.7282 21.3741C15.1687 21.8431 14.4192 22.2442 14.1043 22.4127C14.0781 22.4267 14.0549 22.4391 14.0357 22.4498C13.8361 22.5608 13.7459 23.2822 13.7046 23.6118C13.6947 23.6909 13.763 23.7712 13.8427 23.7706C13.9471 23.7698 14.0183 23.7684 14.0791 23.7673C14.2112 23.7647 14.2944 23.763 14.5632 23.7711C15.4262 23.7965 16.9549 23.7861 18.1835 23.7778C18.3904 23.7764 18.5889 23.775 18.7741 23.7739C19.2335 23.7711 19.6748 23.5719 19.9479 23.2025C20.1198 22.9699 20.2816 22.7314 20.4416 22.4754C21.909 20.1255 23.6141 16.4597 21.1171 14.1378C20.0763 13.17 18.6983 13.0133 16.3502 12.7502C14.4299 12.5351 13.6967 12.2501 12.8212 11.3784C12.0812 10.6416 11.7937 10.0103 11.2992 8.03583C11.0349 6.98098 11.0303 6.94427 11.1619 6.94267C11.3439 6.94045 12.2836 6.18738 12.5972 5.79226C13.4782 4.68254 13.9353 3.24791 13.7584 2.1475C13.6631 1.55394 13.4324 1.35024 12.8119 1.31185C11.7684 1.2472 10.1766 2.06622 8.78861 3.38186L8.31244 3.83315L7.83044 3.70997C7.5653 3.64219 7.24511 3.57793 7.11887 3.56717L6.88937 3.54748L6.86614 2.97506C6.83571 2.22649 6.66577 1.53913 6.34375 0.862387C5.89601 -0.0783596 5.48798 -0.231844 4.89093 0.316073ZM16.0963 22.5892C15.8923 22.9789 15.8258 23.0466 15.6461 23.0472C15.5302 23.0475 15.4353 23.0275 15.4353 23.0027C15.4353 22.9052 16.1497 22.1319 16.2397 22.1319C16.3006 22.1319 16.2481 22.2992 16.0963 22.5892ZM5.28647 23.0472C5.46615 23.0466 5.67603 22.7148 5.88008 22.3251C6.03185 22.0351 5.94094 21.8509 5.88008 21.8509C5.79001 21.8509 5.07567 22.9052 5.07567 23.0027C5.07567 23.0275 5.17057 23.0475 5.28647 23.0472Z" fill="#FF5C00"/>
</svg>
